<svg width="64" height="58" viewBox="0 0 64 58" fill="none" xmlns="http://www.w3.org/2000/svg">
<path d="M0 57.6V0H22.1004C26.3491 0 29.9687 0.834375 32.9591 2.50313C35.9496 4.15313 38.229 6.45 39.7971 9.39375C41.3836 12.3187 42.1768 15.6937 42.1768 19.5187C42.1768 23.3438 41.3744 26.7187 39.7698 29.6437C38.1651 32.5687 35.8402 34.8469 32.795 36.4781C29.7681 38.1094 26.1029 38.925 21.7995 38.925H7.71326V29.1656H19.8849C22.1642 29.1656 24.0424 28.7625 25.5194 27.9562C27.0146 27.1313 28.127 25.9969 28.8563 24.5531C29.604 23.0906 29.9778 21.4125 29.9778 19.5187C29.9778 17.6062 29.604 15.9375 28.8563 14.5125C28.127 13.0687 27.0146 11.9531 25.5194 11.1656C24.0242 10.3594 22.1278 9.95625 19.8302 9.95625H11.8434V57.6H0Z" fill="#F0C11B"/>
<path d="M10.2698 57.6V0H32.3702C36.6188 0 40.2384 0.834375 43.2289 2.50313C46.2194 4.15313 48.4987 6.45 50.0669 9.39375C51.6533 12.3187 52.4465 15.6937 52.4465 19.5187C52.4465 23.3438 51.6442 26.7187 50.0395 29.6437C48.4349 32.5687 46.11 34.8469 43.0648 36.4781C40.0378 38.1094 36.3727 38.925 32.0693 38.925H17.983V29.1656H30.1547C32.434 29.1656 34.3122 28.7625 35.7892 27.9562C37.2844 27.1313 38.3967 25.9969 39.1261 24.5531C39.8737 23.0906 40.2475 21.4125 40.2475 19.5187C40.2475 17.6062 39.8737 15.9375 39.1261 14.5125C38.3967 13.0687 37.2844 11.9531 35.7892 11.1656C34.2939 10.3594 32.3975 9.95625 30.0999 9.95625H22.1132V57.6H10.2698Z" fill="#45BAEC"/>
<path d="M21.8232 57.6V0H43.9236C48.1723 0 51.7919 0.834375 54.7824 2.50313C57.7729 4.15313 60.0522 6.45 61.6204 9.39375C63.2068 12.3187 64 15.6937 64 19.5187C64 23.3438 63.1977 26.7187 61.593 29.6437C59.9884 32.5687 57.6635 34.8469 54.6183 36.4781C51.5913 38.1094 47.9262 38.925 43.6228 38.925H29.5365V29.1656H41.7081C43.9875 29.1656 45.8656 28.7625 47.3426 27.9562C48.8379 27.1313 49.9502 25.9969 50.6796 24.5531C51.4272 23.0906 51.801 21.4125 51.801 19.5187C51.801 17.6062 51.4272 15.9375 50.6796 14.5125C49.9502 13.0687 48.8379 11.9531 47.3426 11.1656C45.8474 10.3594 43.951 9.95625 41.6534 9.95625H33.6666V57.6H21.8232Z" fill="#EB5231"/>
</svg>
