<svg width="196" height="58" viewBox="0 0 196 58" fill="none" xmlns="http://www.w3.org/2000/svg">
<path d="M0 57.6V0H22.1004C26.3491 0 29.9687 0.834375 32.9591 2.50313C35.9496 4.15313 38.229 6.45 39.7971 9.39375C41.3836 12.3187 42.1768 15.6937 42.1768 19.5187C42.1768 23.3437 41.3744 26.7187 39.7698 29.6437C38.1651 32.5687 35.8402 34.8469 32.795 36.4781C29.7681 38.1094 26.1029 38.925 21.7995 38.925H7.71326V29.1656H19.8849C22.1642 29.1656 24.0424 28.7625 25.5194 27.9562C27.0146 27.1312 28.127 25.9969 28.8563 24.5531C29.604 23.0906 29.9778 21.4125 29.9778 19.5187C29.9778 17.6062 29.604 15.9375 28.8563 14.5125C28.127 13.0687 27.0146 11.9531 25.5194 11.1656C24.0242 10.3594 22.1278 9.95625 19.8302 9.95625H11.8434V57.6H0Z" fill="#F0C11B"/>
<path d="M10.2698 57.6V0H32.3702C36.6188 0 40.2384 0.834375 43.2289 2.50313C46.2194 4.15313 48.4987 6.45 50.0669 9.39375C51.6533 12.3187 52.4465 15.6937 52.4465 19.5187C52.4465 23.3437 51.6442 26.7187 50.0395 29.6437C48.4349 32.5687 46.11 34.8469 43.0648 36.4781C40.0378 38.1094 36.3727 38.925 32.0693 38.925H17.983V29.1656H30.1547C32.434 29.1656 34.3122 28.7625 35.7892 27.9562C37.2844 27.1312 38.3967 25.9969 39.1261 24.5531C39.8737 23.0906 40.2475 21.4125 40.2475 19.5187C40.2475 17.6062 39.8737 15.9375 39.1261 14.5125C38.3967 13.0687 37.2844 11.9531 35.7892 11.1656C34.2939 10.3594 32.3975 9.95625 30.0999 9.95625H22.1132V57.6H10.2698Z" fill="#45BAEC"/>
<path d="M21.8232 57.6V0H43.9236C48.1723 0 51.7919 0.834375 54.7824 2.50313C57.7729 4.15313 60.0522 6.45 61.6204 9.39375C63.2068 12.3187 64 15.6937 64 19.5187C64 23.3437 63.1977 26.7187 61.593 29.6437C59.9884 32.5687 57.6635 34.8469 54.6183 36.4781C51.5913 38.1094 47.9261 38.925 43.6228 38.925H29.5365V29.1656H41.7081C43.9875 29.1656 45.8656 28.7625 47.3426 27.9562C48.8379 27.1312 49.9502 25.9969 50.6796 24.5531C51.4272 23.0906 51.801 21.4125 51.801 19.5187C51.801 17.6062 51.4272 15.9375 50.6796 14.5125C49.9502 13.0687 48.8379 11.9531 47.3426 11.1656C45.8474 10.3594 43.951 9.95625 41.6534 9.95625H33.6666V57.6H21.8232Z" fill="#EB5231"/>
<path d="M97.9375 37.9477H95.8516V35.4984H80.2773V37.9477H78.1562V33.6H86.8047C86.6016 33.1859 86.2969 32.7133 85.8906 32.182L88.1641 31.725C88.5469 32.3266 88.9062 32.9516 89.2422 33.6H97.9375V37.9477ZM98.7227 50.0883L97.5039 51.8344C94.7305 50.2797 92.6758 48.643 91.3398 46.9242C91.3633 47.2523 91.375 47.6273 91.375 48.0492C91.375 49.8852 91.1094 51.1391 90.5781 51.8109C90.0469 52.4906 89.0195 52.8305 87.4961 52.8305C87.0977 52.8305 86.5781 52.8188 85.9375 52.7953L85.2344 50.7563C86.3359 50.7953 87.1211 50.8148 87.5898 50.8148C88.1758 50.8148 88.5586 50.7328 88.7383 50.5688C88.9258 50.4047 89.0703 50.2055 89.1719 49.9711C89.2734 49.7289 89.3242 48.9945 89.3242 47.768C89.3242 47.3773 89.3164 47.0141 89.3008 46.6781C86.293 49.2172 82.6758 51.0258 78.4492 52.1039L77.5117 50.2992C81.8711 49.393 85.6875 47.4672 88.9609 44.5219C88.8281 44.0609 88.6602 43.643 88.457 43.268C85.5977 45.4789 82.3242 46.9672 78.6367 47.7328L77.7227 45.9867C81.1758 45.4086 84.4492 44.0063 87.543 41.7797C87.4961 41.7172 87.2227 41.4164 86.7227 40.8773C84.5195 42.0258 81.9609 42.8578 79.0469 43.3734L78.0859 41.5453C81.3438 41.2094 84.3516 40.2719 87.1094 38.7328H81.2852V36.8695H94.8438V38.7328H89.9219C89.5312 39.1234 89.043 39.4906 88.457 39.8344C89.457 40.9281 90.1758 42.0648 90.6133 43.2445C92.2617 42.4242 93.8398 41.2719 95.3477 39.7875L96.8594 41.1352C95.4375 42.4945 93.7656 43.6781 91.8438 44.6859C93.3281 46.7016 95.6211 48.5023 98.7227 50.0883ZM156.637 34.9477C155.215 37.7211 153.785 39.8148 152.348 41.2289C153.066 41.1977 153.695 41.1195 154.234 40.9945C154.188 40.7133 154.094 40.3695 153.953 39.9633L155.535 39.4594C155.965 40.6938 156.301 41.9789 156.543 43.3148L154.938 43.8773C154.906 43.5961 154.832 43.2016 154.715 42.6938C152.918 43.0141 151.383 43.2133 150.109 43.2914L149.758 41.6391C150.742 40.6781 151.652 39.5414 152.488 38.2289C152.301 38.2289 151.516 38.2953 150.133 38.4281L149.828 36.7172C150.859 35.3813 151.746 33.6781 152.488 31.6078L154.48 32.0883C153.941 33.5648 153.148 35.0141 152.102 36.4359C152.539 36.4125 153.043 36.3695 153.613 36.307C154.051 35.5727 154.41 34.8617 154.691 34.1742L156.637 34.9477ZM163.117 43.2914H157.094V33.6234H158.605C158.887 33.1391 159.168 32.475 159.449 31.6313L161.582 32.0648C161.34 32.6586 161.094 33.1781 160.844 33.6234H163.117V43.2914ZM161.195 37.5141V35.4984H158.992V37.5141H161.195ZM161.195 41.4281V39.2602H158.992V41.4281H161.195ZM170.629 43.2445L168.977 43.9711C168.836 43.3461 168.746 42.9867 168.707 42.893C167.168 43.1273 165.57 43.2953 163.914 43.3969L163.574 41.7797C164.574 40.8422 165.52 39.6273 166.41 38.1352L163.938 38.4047L163.527 36.8109C164.543 35.5141 165.438 33.7953 166.211 31.6547L168.133 32.1586C167.633 33.5883 166.898 34.9906 165.93 36.3656C166.312 36.3656 166.848 36.2992 167.535 36.1664C167.965 35.3852 168.285 34.7445 168.496 34.2445L170.395 34.9008C169.293 37.307 167.941 39.4594 166.34 41.3578C166.965 41.3578 167.555 41.2836 168.109 41.1352C168.016 40.8617 167.879 40.5258 167.699 40.1273L169.293 39.4125C169.887 40.6781 170.332 41.9555 170.629 43.2445ZM170.488 46.8422H161.172V52.8422H158.992V46.8422H149.582V44.8852H158.992V43.7953H161.172V44.8852H170.488V46.8422ZM157.621 48.7406C155.793 50.225 153.488 51.4828 150.707 52.5141L149.559 50.7094C152.152 49.7797 154.297 48.6625 155.992 47.3578L157.621 48.7406ZM170.629 50.7797L169.504 52.5844C167.824 51.4672 165.512 50.3539 162.566 49.2445L163.621 47.475C166.332 48.4672 168.668 49.5688 170.629 50.7797Z" fill="#EB5231"/>
<path d="M122.465 35.5922H105.496V43.9008C105.496 47.4945 104.777 50.5258 103.34 52.9945L101.605 51.6703C102.793 49.4906 103.387 46.8266 103.387 43.6781V33.6H111.52C111.293 33.1547 110.988 32.7055 110.605 32.2523L112.891 31.7719C113.039 31.9672 113.398 32.5766 113.969 33.6H122.465V35.5922ZM122.195 48.8109H112.316V46.8422H116.219V43.7953H113.102V41.8617H116.219V39.5063C115.023 39.6234 114.031 39.7094 113.242 39.7641L112.434 37.8422C115.723 37.6625 118.57 37.2094 120.977 36.4828L122.125 38.2523C120.727 38.6586 119.465 38.9555 118.34 39.143V41.8617H121.363V43.7953H118.34V46.8422H122.195V48.8109ZM122.758 50.4516L122.125 52.5141H115.691C113.184 52.5141 111.105 51.9438 109.457 50.8031C108.762 51.5297 107.793 52.2445 106.551 52.9477L105.18 51.2836C106.32 50.7445 107.258 50.0961 107.992 49.3383C107.391 48.6508 106.773 47.4672 106.141 45.7875L108.062 45.143C108.477 46.3617 108.82 47.1781 109.094 47.5922C109.547 46.6938 109.812 45.6156 109.891 44.3578H106.434V42.3891C107.27 41.6859 108.223 40.6039 109.293 39.143H106.434V37.1742H111.707V39.143C111.02 40.2445 110.172 41.3266 109.164 42.3891H112V44.3578C111.727 46.35 111.254 47.9789 110.582 49.2445C111.746 50.0492 113.395 50.4516 115.527 50.4516H122.758ZM194.898 36.0492L194.055 37.9477C192.094 37.4633 190.109 36.807 188.102 35.9789V36.8695H180.262V35.932C178.41 36.7523 176.449 37.4398 174.379 37.9945L173.324 36.2602C178.051 35.0414 181.539 33.4828 183.789 31.5844L186.133 32.1586C185.969 32.3617 185.824 32.5141 185.699 32.6156C187.926 34.0219 190.992 35.1664 194.898 36.0492ZM186.426 35.2055C185.137 34.4867 184.352 34.0414 184.07 33.8695C183.414 34.3617 182.664 34.807 181.82 35.2055H186.426ZM192.707 44.0414H175.574V37.8422H192.707V44.0414ZM190.598 42.3656V39.5531H185.172V42.3656H190.598ZM189.684 40.6781C189.152 41.1234 188.48 41.5883 187.668 42.0727L186.18 41.0648C187.117 40.4711 187.773 40.0375 188.148 39.7641L189.684 40.6781ZM183.062 42.3656V39.5531H177.66V42.3656H183.062ZM182.008 41.182L180.496 42.143C179.918 41.6586 179.254 41.1859 178.504 40.725L179.992 39.7172C180.484 39.9906 181.156 40.4789 182.008 41.182ZM191.676 52.7719H189.566V51.9164H178.82V52.7719H176.629V45.0961H191.676V52.7719ZM189.566 47.7094V46.725H178.82V47.7094H189.566ZM189.566 50.2523V49.1977H178.82V50.2523H189.566Z" fill="#45BAEC"/>
<path d="M145.773 50.8266C145.773 51.3578 145.621 51.7953 145.316 52.1391C145.012 52.4828 144.539 52.6859 143.898 52.7484C143.266 52.8109 142.543 52.8422 141.73 52.8422C141.191 52.8422 140.594 52.8266 139.938 52.7953L139.211 50.6625C139.719 50.6938 140.266 50.7094 140.852 50.7094C142.25 50.7094 143.062 50.6625 143.289 50.5688C143.516 50.475 143.629 50.307 143.629 50.0648V34.4438H128.758V52.8188H126.637V32.3813H145.773V50.8266ZM142.234 38.5688H130.023V36.5297H142.234V38.5688ZM140.992 48.3891H131.301V40.7016H140.992V48.3891ZM138.93 46.3734V42.7172H133.457V46.3734H138.93Z" fill="#F0C11B"/>
</svg>
