<svg width="360" height="436" viewBox="0 0 360 436" fill="none" xmlns="http://www.w3.org/2000/svg">
<path d="M0 324V0H124.315C148.214 0 168.574 4.69336 185.395 14.0801C202.217 23.3613 215.038 36.2812 223.859 52.8398C232.783 69.293 237.244 88.2773 237.244 109.793C237.244 131.309 232.731 150.293 223.705 166.746C214.679 183.199 201.601 196.014 184.472 205.189C167.445 214.365 146.829 218.953 122.622 218.953H43.3871V164.057H111.853C124.674 164.057 135.238 161.789 143.547 157.254C151.957 152.613 158.214 146.232 162.317 138.111C166.522 129.885 168.625 120.445 168.625 109.793C168.625 99.0351 166.522 89.6484 162.317 81.6328C158.214 73.5117 151.957 67.2363 143.547 62.8066C135.136 58.2715 124.469 56.0039 111.545 56.0039H66.6192V324H0Z" fill="#F0C11B"/>
<path d="M57.7674 324V0H182.082C205.981 0 226.341 4.69336 243.163 14.0801C259.984 23.3613 272.805 36.2812 281.626 52.8398C290.55 69.293 295.012 88.2773 295.012 109.793C295.012 131.309 290.499 150.293 281.472 166.746C272.446 183.199 259.369 196.014 242.239 205.189C225.213 214.365 204.596 218.953 180.39 218.953H101.154V164.057H169.62C182.441 164.057 193.006 161.789 201.314 157.254C209.725 152.613 215.982 146.232 220.084 138.111C224.29 129.885 226.392 120.445 226.392 109.793C226.392 99.0351 224.29 89.6484 220.084 81.6328C215.982 73.5117 209.725 67.2363 201.314 62.8066C192.903 58.2715 182.236 56.0039 169.312 56.0039H124.387V324H57.7674Z" fill="#45BAEC"/>
<path d="M122.756 324V0H247.07C270.969 0 291.329 4.69336 308.151 14.0801C324.972 23.3613 337.794 36.2812 346.615 52.8398C355.538 69.293 360 88.2773 360 109.793C360 131.309 355.487 150.293 346.461 166.746C337.435 183.199 324.357 196.014 307.228 205.189C290.201 214.365 269.585 218.953 245.378 218.953H166.143V164.057H234.608C247.429 164.057 257.994 161.789 266.302 157.254C274.713 152.613 280.97 146.232 285.073 138.111C289.278 129.885 291.381 120.445 291.381 109.793C291.381 99.0351 289.278 89.6484 285.073 81.6328C280.97 73.5117 274.713 67.2363 266.302 62.8066C257.892 58.2715 247.224 56.0039 234.301 56.0039H189.375V324H122.756Z" fill="#EB5231"/>
<path d="M43.875 396.695H39.7031V391.797H8.55469V396.695H4.3125V388H21.6094C21.2031 387.172 20.5938 386.227 19.7812 385.164L24.3281 384.25C25.0938 385.453 25.8125 386.703 26.4844 388H43.875V396.695ZM45.4453 420.977L43.0078 424.469C37.4609 421.359 33.3516 418.086 30.6797 414.648C30.7266 415.305 30.75 416.055 30.75 416.898C30.75 420.57 30.2188 423.078 29.1562 424.422C28.0938 425.781 26.0391 426.461 22.9922 426.461C22.1953 426.461 21.1562 426.438 19.875 426.391L18.4688 422.312C20.6719 422.391 22.2422 422.43 23.1797 422.43C24.3516 422.43 25.1172 422.266 25.4766 421.938C25.8516 421.609 26.1406 421.211 26.3438 420.742C26.5469 420.258 26.6484 418.789 26.6484 416.336C26.6484 415.555 26.6328 414.828 26.6016 414.156C20.5859 419.234 13.3516 422.852 4.89844 425.008L3.02344 421.398C11.7422 419.586 19.375 415.734 25.9219 409.844C25.6562 408.922 25.3203 408.086 24.9141 407.336C19.1953 411.758 12.6484 414.734 5.27344 416.266L3.44531 412.773C10.3516 411.617 16.8984 408.812 23.0859 404.359C22.9922 404.234 22.4453 403.633 21.4453 402.555C17.0391 404.852 11.9219 406.516 6.09375 407.547L4.17188 403.891C10.6875 403.219 16.7031 401.344 22.2188 398.266H10.5703V394.539H37.6875V398.266H27.8438C27.0625 399.047 26.0859 399.781 24.9141 400.469C26.9141 402.656 28.3516 404.93 29.2266 407.289C32.5234 405.648 35.6797 403.344 38.6953 400.375L41.7188 403.07C38.875 405.789 35.5312 408.156 31.6875 410.172C34.6562 414.203 39.2422 417.805 45.4453 420.977ZM161.273 390.695C158.43 396.242 155.57 400.43 152.695 403.258C154.133 403.195 155.391 403.039 156.469 402.789C156.375 402.227 156.188 401.539 155.906 400.727L159.07 399.719C159.93 402.188 160.602 404.758 161.086 407.43L157.875 408.555C157.812 407.992 157.664 407.203 157.43 406.188C153.836 406.828 150.766 407.227 148.219 407.383L147.516 404.078C149.484 402.156 151.305 399.883 152.977 397.258C152.602 397.258 151.031 397.391 148.266 397.656L147.656 394.234C149.719 391.562 151.492 388.156 152.977 384.016L156.961 384.977C155.883 387.93 154.297 390.828 152.203 393.672C153.078 393.625 154.086 393.539 155.227 393.414C156.102 391.945 156.82 390.523 157.383 389.148L161.273 390.695ZM174.234 407.383H162.188V388.047H165.211C165.773 387.078 166.336 385.75 166.898 384.062L171.164 384.93C170.68 386.117 170.188 387.156 169.688 388.047H174.234V407.383ZM170.391 395.828V391.797H165.984V395.828H170.391ZM170.391 403.656V399.32H165.984V403.656H170.391ZM189.258 407.289L185.953 408.742C185.672 407.492 185.492 406.773 185.414 406.586C182.336 407.055 179.141 407.391 175.828 407.594L175.148 404.359C177.148 402.484 179.039 400.055 180.82 397.07L175.875 397.609L175.055 394.422C177.086 391.828 178.875 388.391 180.422 384.109L184.266 385.117C183.266 387.977 181.797 390.781 179.859 393.531C180.625 393.531 181.695 393.398 183.07 393.133C183.93 391.57 184.57 390.289 184.992 389.289L188.789 390.602C186.586 395.414 183.883 399.719 180.68 403.516C181.93 403.516 183.109 403.367 184.219 403.07C184.031 402.523 183.758 401.852 183.398 401.055L186.586 399.625C187.773 402.156 188.664 404.711 189.258 407.289ZM188.977 414.484H170.344V426.484H165.984V414.484H147.164V410.57H165.984V408.391H170.344V410.57H188.977V414.484ZM163.242 418.281C159.586 421.25 154.977 423.766 149.414 425.828L147.117 422.219C152.305 420.359 156.594 418.125 159.984 415.516L163.242 418.281ZM189.258 422.359L187.008 425.969C183.648 423.734 179.023 421.508 173.133 419.289L175.242 415.75C180.664 417.734 185.336 419.938 189.258 422.359Z" fill="#EB5231"/>
<path d="M92.9297 391.984H58.9922V408.602C58.9922 415.789 57.5547 421.852 54.6797 426.789L51.2109 424.141C53.5859 419.781 54.7734 414.453 54.7734 408.156V388H71.0391C70.5859 387.109 69.9766 386.211 69.2109 385.305L73.7812 384.344C74.0781 384.734 74.7969 385.953 75.9375 388H92.9297V391.984ZM92.3906 418.422H72.6328V414.484H80.4375V408.391H74.2031V404.523H80.4375V399.812C78.0469 400.047 76.0625 400.219 74.4844 400.328L72.8672 396.484C79.4453 396.125 85.1406 395.219 89.9531 393.766L92.25 397.305C89.4531 398.117 86.9297 398.711 84.6797 399.086V404.523H90.7266V408.391H84.6797V414.484H92.3906V418.422ZM93.5156 421.703L92.25 425.828H79.3828C74.3672 425.828 70.2109 424.688 66.9141 422.406C65.5234 423.859 63.5859 425.289 61.1016 426.695L58.3594 423.367C60.6406 422.289 62.5156 420.992 63.9844 419.477C62.7812 418.102 61.5469 415.734 60.2812 412.375L64.125 411.086C64.9531 413.523 65.6406 415.156 66.1875 415.984C67.0938 414.188 67.625 412.031 67.7812 409.516H60.8672V405.578C62.5391 404.172 64.4453 402.008 66.5859 399.086H60.8672V395.148H71.4141V399.086C70.0391 401.289 68.3438 403.453 66.3281 405.578H72V409.516C71.4531 413.5 70.5078 416.758 69.1641 419.289C71.4922 420.898 74.7891 421.703 79.0547 421.703H93.5156ZM237.797 392.898L236.109 396.695C232.188 395.727 228.219 394.414 224.203 392.758V394.539H208.523V392.664C204.82 394.305 200.898 395.68 196.758 396.789L194.648 393.32C204.102 390.883 211.078 387.766 215.578 383.969L220.266 385.117C219.938 385.523 219.648 385.828 219.398 386.031C223.852 388.844 229.984 391.133 237.797 392.898ZM220.852 391.211C218.273 389.773 216.703 388.883 216.141 388.539C214.828 389.523 213.328 390.414 211.641 391.211H220.852ZM233.414 408.883H199.148V396.484H233.414V408.883ZM229.195 405.531V399.906H218.344V405.531H229.195ZM227.367 402.156C226.305 403.047 224.961 403.977 223.336 404.945L220.359 402.93C222.234 401.742 223.547 400.875 224.297 400.328L227.367 402.156ZM214.125 405.531V399.906H203.32V405.531H214.125ZM212.016 403.164L208.992 405.086C207.836 404.117 206.508 403.172 205.008 402.25L207.984 400.234C208.969 400.781 210.312 401.758 212.016 403.164ZM231.352 426.344H227.133V424.633H205.641V426.344H201.258V410.992H231.352V426.344ZM227.133 416.219V414.25H205.641V416.219H227.133ZM227.133 421.305V419.195H205.641V421.305H227.133Z" fill="#45BAEC"/>
<path d="M139.547 422.453C139.547 423.516 139.242 424.391 138.633 425.078C138.023 425.766 137.078 426.172 135.797 426.297C134.531 426.422 133.086 426.484 131.461 426.484C130.383 426.484 129.188 426.453 127.875 426.391L126.422 422.125C127.438 422.188 128.531 422.219 129.703 422.219C132.5 422.219 134.125 422.125 134.578 421.938C135.031 421.75 135.258 421.414 135.258 420.93V389.688H105.516V426.438H101.273V385.562H139.547V422.453ZM132.469 397.938H108.047V393.859H132.469V397.938ZM129.984 417.578H110.602V402.203H129.984V417.578ZM125.859 413.547V406.234H114.914V413.547H125.859Z" fill="#F0C11B"/>
</svg>
