<svg width="20" height="20" viewBox="0 0 20 20" fill="none" xmlns="http://www.w3.org/2000/svg">
<path d="M7.6 7.6V6.85C7.18578 6.85 6.85 7.18578 6.85 7.6H7.6ZM7.67969 7.6H8.42969C8.42969 7.18578 8.0939 6.85 7.67969 6.85V7.6ZM12.4 7.6V6.85C11.9858 6.85 11.65 7.18578 11.65 7.6H12.4ZM12.4708 7.6H13.2208C13.2208 7.18578 12.8851 6.85 12.4708 6.85V7.6ZM7.67969 7.66406V8.41406C8.0939 8.41406 8.42969 8.07827 8.42969 7.66406H7.67969ZM7.6 7.66406H6.85C6.85 8.07827 7.18578 8.41406 7.6 8.41406V7.66406ZM12.4708 7.66406V8.41406C12.8851 8.41406 13.2208 8.07827 13.2208 7.66406H12.4708ZM12.4 7.66406H11.65C11.65 8.07827 11.9858 8.41406 12.4 8.41406V7.66406ZM7.86434 12.0379C7.64632 11.6857 7.18408 11.5769 6.83188 11.7949C6.47968 12.0129 6.3709 12.4752 6.58891 12.8274L7.86434 12.0379ZM13.4111 12.8274C13.6291 12.4752 13.5203 12.0129 13.1681 11.7949C12.8159 11.5769 12.3537 11.6857 12.1357 12.0379L13.4111 12.8274ZM17.25 10C17.25 14.0041 14.0041 17.25 10 17.25V18.75C14.8325 18.75 18.75 14.8325 18.75 10H17.25ZM10 17.25C5.99593 17.25 2.75 14.0041 2.75 10H1.25C1.25 14.8325 5.16751 18.75 10 18.75V17.25ZM2.75 10C2.75 5.99593 5.99593 2.75 10 2.75V1.25C5.16751 1.25 1.25 5.16751 1.25 10H2.75ZM10 2.75C14.0041 2.75 17.25 5.99593 17.25 10H18.75C18.75 5.16751 14.8325 1.25 10 1.25V2.75ZM7.6 8.35H7.67969V6.85H7.6V8.35ZM12.4 8.35H12.4708V6.85H12.4V8.35ZM6.92969 7.6V7.66406H8.42969V7.6H6.92969ZM7.67969 6.91406H7.6V8.41406H7.67969V6.91406ZM8.35 7.66406V7.6H6.85V7.66406H8.35ZM11.7208 7.6V7.66406H13.2208V7.6H11.7208ZM12.4708 6.91406H12.4V8.41406H12.4708V6.91406ZM13.15 7.66406V7.6H11.65V7.66406H13.15ZM10 13.25C9.11107 13.25 8.32026 12.7744 7.86434 12.0379L6.58891 12.8274C7.29956 13.9754 8.557 14.75 10 14.75V13.25ZM12.1357 12.0379C11.6797 12.7744 10.8889 13.25 10 13.25V14.75C11.443 14.75 12.7004 13.9754 13.4111 12.8274L12.1357 12.0379Z" fill="#F2F2F2"/>
</svg>
