<svg width="360" height="324" viewBox="0 0 360 324" fill="none" xmlns="http://www.w3.org/2000/svg">
<path d="M0 324V0H124.315C148.214 0 168.574 4.69336 185.395 14.0801C202.217 23.3613 215.038 36.2812 223.859 52.8398C232.783 69.293 237.244 88.2773 237.244 109.793C237.244 131.309 232.731 150.293 223.705 166.746C214.679 183.199 201.601 196.014 184.472 205.189C167.445 214.365 146.829 218.953 122.622 218.953H43.3871V164.057H111.853C124.674 164.057 135.238 161.789 143.547 157.254C151.957 152.613 158.214 146.232 162.317 138.111C166.522 129.885 168.625 120.445 168.625 109.793C168.625 99.0351 166.522 89.6484 162.317 81.6328C158.214 73.5117 151.957 67.2363 143.547 62.8066C135.136 58.2715 124.469 56.0039 111.545 56.0039H66.6192V324H0Z" fill="#F0C11B"/>
<path d="M57.7674 324V0H182.082C205.981 0 226.341 4.69336 243.163 14.0801C259.984 23.3613 272.805 36.2812 281.626 52.8398C290.55 69.293 295.012 88.2773 295.012 109.793C295.012 131.309 290.499 150.293 281.472 166.746C272.446 183.199 259.369 196.014 242.239 205.189C225.213 214.365 204.596 218.953 180.39 218.953H101.154V164.057H169.62C182.441 164.057 193.006 161.789 201.314 157.254C209.725 152.613 215.982 146.232 220.084 138.111C224.29 129.885 226.392 120.445 226.392 109.793C226.392 99.0351 224.29 89.6484 220.084 81.6328C215.982 73.5117 209.725 67.2363 201.314 62.8066C192.903 58.2715 182.236 56.0039 169.312 56.0039H124.387V324H57.7674Z" fill="#45BAEC"/>
<path d="M122.756 324V0H247.07C270.969 0 291.329 4.69336 308.151 14.0801C324.972 23.3613 337.794 36.2812 346.615 52.8398C355.538 69.293 360 88.2773 360 109.793C360 131.309 355.487 150.293 346.461 166.746C337.435 183.199 324.357 196.014 307.228 205.189C290.201 214.365 269.585 218.953 245.378 218.953H166.143V164.057H234.608C247.429 164.057 257.994 161.789 266.302 157.254C274.713 152.613 280.97 146.232 285.073 138.111C289.278 129.885 291.381 120.445 291.381 109.793C291.381 99.0351 289.278 89.6484 285.073 81.6328C280.97 73.5117 274.713 67.2363 266.302 62.8066C257.892 58.2715 247.224 56.0039 234.301 56.0039H189.375V324H122.756Z" fill="#EB5231"/>
</svg>
