<svg width="20" height="20" viewBox="0 0 20 20" fill="none" xmlns="http://www.w3.org/2000/svg">
<path d="M2.46967 15.9697C2.17678 16.2626 2.17678 16.7374 2.46967 17.0303C2.76256 17.3232 3.23744 17.3232 3.53033 17.0303L2.46967 15.9697ZM7 12.5L7.53033 11.9697C7.23744 11.6768 6.76256 11.6768 6.46967 11.9697L7 12.5ZM9 14.5L8.46967 15.0303C8.76256 15.3232 9.23744 15.3232 9.53033 15.0303L9 14.5ZM13.5 10L14.0303 9.46967C13.7374 9.17677 13.2626 9.17677 12.9697 9.46967L13.5 10ZM16.9697 14.5303C17.2626 14.8232 17.7374 14.8232 18.0303 14.5303C18.3232 14.2374 18.3232 13.7626 18.0303 13.4697L16.9697 14.5303ZM3.53033 17.0303L7.53033 13.0303L6.46967 11.9697L2.46967 15.9697L3.53033 17.0303ZM6.46967 13.0303L8.46967 15.0303L9.53033 13.9697L7.53033 11.9697L6.46967 13.0303ZM9.53033 15.0303L14.0303 10.5303L12.9697 9.46967L8.46967 13.9697L9.53033 15.0303ZM12.9697 10.5303L16.9697 14.5303L18.0303 13.4697L14.0303 9.46967L12.9697 10.5303ZM5 2.75H15V1.25H5V2.75ZM17.25 5V15H18.75V5H17.25ZM15 17.25H5V18.75H15V17.25ZM2.75 15V5H1.25V15H2.75ZM5 17.25C3.75736 17.25 2.75 16.2426 2.75 15H1.25C1.25 17.0711 2.92893 18.75 5 18.75V17.25ZM17.25 15C17.25 16.2426 16.2426 17.25 15 17.25V18.75C17.0711 18.75 18.75 17.0711 18.75 15H17.25ZM15 2.75C16.2426 2.75 17.25 3.75736 17.25 5H18.75C18.75 2.92893 17.0711 1.25 15 1.25V2.75ZM5 1.25C2.92893 1.25 1.25 2.92893 1.25 5H2.75C2.75 3.75736 3.75736 2.75 5 2.75V1.25ZM7.25 6.5C7.25 6.91421 6.91421 7.25 6.5 7.25V8.75C7.74264 8.75 8.75 7.74264 8.75 6.5H7.25ZM6.5 7.25C6.08579 7.25 5.75 6.91421 5.75 6.5H4.25C4.25 7.74264 5.25736 8.75 6.5 8.75V7.25ZM5.75 6.5C5.75 6.08579 6.08579 5.75 6.5 5.75V4.25C5.25736 4.25 4.25 5.25736 4.25 6.5H5.75ZM6.5 5.75C6.91421 5.75 7.25 6.08579 7.25 6.5H8.75C8.75 5.25736 7.74264 4.25 6.5 4.25V5.75Z" fill="white"/>
</svg>
